{"glyphs":{":":{"x_min":0,"x_max":271,"ha":271,"o":"m 55 318 q 55 351 79 374 q 103 397 137 397 q 170 397 194 373 q 218 349 218 316 q 218 283 194 260 q 170 236 137 236 q 103 236 79 260 q 55 284 55 318 z m 55 66 q 55 99 79 122 q 102 146 135 146 q 169 146 193 123 q 217 99 217 65 q 217 32 193 9 q 168 -15 135 -15 q 102 -15 79 9 q 55 33 55 66 z"},"$":{"x_min":0,"x_max":542,"ha":542,"o":"m 242 738 l 323 738 l 323 671 q 421 662 493 596 l 404 485 q 355 526 322 536 l 322 395 q 508 338 508 185 q 508 108 460 55 q 413 2 321 -14 l 321 -99 l 241 -99 l 241 -15 l 228 -15 q 183 -15 123 10 q 63 36 30 75 l 115 182 q 169 126 241 112 l 241 276 q 152 298 106 354 q 59 410 59 483 q 59 561 104 614 q 149 667 242 672 z m 241 420 l 241 540 q 196 524 196 482 q 196 436 241 420 z m 322 247 l 322 120 q 372 133 372 183 q 372 229 322 247 z"},"?":{"x_min":0,"x_max":469,"ha":469,"o":"m 187 450 l 33 450 q 37 562 93 616 q 149 670 235 670 q 325 670 378 615 q 432 560 432 467 q 432 327 318 267 l 318 182 l 170 182 l 170 348 q 225 350 249 373 q 273 396 273 454 q 273 533 232 533 q 188 533 187 450 z m 167 63 q 167 96 191 119 q 215 143 248 143 q 283 143 306 120 q 329 98 329 63 q 329 30 305 6 q 282 -17 248 -17 q 215 -17 191 7 q 167 30 167 63 z"},"<":{"x_min":0,"x_max":667,"ha":667,"o":"m 605 56 l 62 283 l 62 377 l 605 604 l 605 491 l 205 330 l 605 170 z"},"'":{"x_min":0,"x_max":238,"ha":238,"o":"m 71 413 l 45 546 l 45 667 l 195 667 l 195 546 l 172 413 z"},"=":{"x_min":0,"x_max":667,"ha":667,"o":"m 62 500 l 605 500 l 605 395 l 62 395 z m 62 267 l 605 267 l 605 162 l 62 162 z"},"a":{"x_min":0,"x_max":473,"ha":473,"o":"m 278 0 l 278 59 l 276 59 q 250 21 226 3 q 202 -15 169 -15 q 105 -15 67 50 q 29 116 29 228 q 29 336 67 400 q 106 464 169 464 q 203 464 226 447 q 250 430 275 393 l 277 393 l 277 449 l 419 449 l 419 0 z m 278 227 q 278 339 223 339 q 168 339 168 227 q 168 111 225 111 q 278 111 278 227 z"},"L":{"x_min":0,"x_max":365,"ha":365,"o":"m 70 652 l 218 652 l 218 151 l 335 151 l 335 0 l 70 0 z"},"3":{"x_min":0,"x_max":490,"ha":490,"o":"m 217 453 l 74 453 q 75 509 84 541 q 93 572 115 602 q 138 631 174 650 q 210 668 252 668 q 327 668 376 614 q 425 560 425 477 q 425 380 350 325 q 438 280 438 163 q 438 117 416 71 q 395 24 353 4 q 312 -17 256 -17 q 172 -17 119 32 q 66 81 62 167 l 202 167 q 203 107 250 107 q 296 107 296 189 q 296 227 282 242 q 269 257 235 257 l 190 257 l 190 392 l 239 392 q 270 392 283 408 q 297 425 297 462 q 297 542 252 542 q 231 542 224 525 q 217 509 217 467 z"},";":{"x_min":0,"x_max":271,"ha":271,"o":"m 57 317 q 57 351 81 375 q 104 399 138 399 q 172 399 197 376 q 221 353 221 320 q 221 286 197 262 q 172 238 138 238 q 106 238 82 262 q 57 287 57 317 z m 66 150 l 202 150 l 74 -131 l -24 -131 z"},"J":{"x_min":0,"x_max":354,"ha":354,"o":"m 140 652 l 288 652 l 288 183 q 288 93 241 37 q 194 -18 116 -18 q 67 -18 20 9 l 20 157 q 64 128 84 128 q 140 128 140 199 z"},"V":{"x_min":0,"x_max":552,"ha":552,"o":"m 10 652 l 164 652 l 245 364 q 268 278 276 218 l 278 218 q 285 271 294 305 l 384 652 l 542 652 l 346 0 l 209 0 z"},"\"":{"x_min":0,"x_max":474,"ha":474,"o":"m 78 415 l 52 549 l 52 670 l 202 670 l 202 549 l 179 415 z m 298 415 l 273 549 l 273 670 l 422 670 l 422 549 l 400 415 z"},"7":{"x_min":0,"x_max":490,"ha":490,"o":"m 92 652 l 475 652 l 229 0 l 79 0 l 272 518 l 92 518 z"},"S":{"x_min":0,"x_max":438,"ha":438,"o":"m 70 12 l 70 164 q 140 123 188 123 q 216 123 232 138 q 248 154 248 179 q 248 199 235 216 q 222 233 190 257 q 114 316 79 366 q 45 417 45 479 q 45 563 98 617 q 151 670 236 670 q 298 670 360 643 l 360 497 q 294 533 253 533 q 226 533 210 520 q 194 506 194 483 q 194 442 268 391 q 312 360 357 305 q 402 250 402 178 q 402 94 343 38 q 284 -17 193 -17 q 131 -17 70 12 z"},"}":{"x_min":0,"x_max":389,"ha":389,"o":"m 358 318 l 358 200 q 312 198 290 181 q 269 164 260 130 q 251 97 251 25 l 251 8 q 251 -88 239 -120 q 227 -151 208 -167 q 189 -184 160 -197 q 131 -210 50 -210 l 24 -210 l 24 -93 l 31 -93 q 65 -93 80 -91 q 94 -88 105 -80 q 116 -72 120 -60 q 124 -48 125 -21 l 126 36 q 128 115 135 147 q 141 180 160 209 q 180 238 215 259 q 176 284 159 309 q 142 334 136 363 q 130 392 126 481 q 124 555 122 571 q 120 586 105 599 q 90 611 30 611 l 24 611 l 24 728 l 50 728 q 120 728 154 717 q 188 706 211 682 q 233 659 242 624 q 251 588 251 510 l 251 493 q 251 427 257 399 q 263 371 277 352 q 292 333 309 326 q 326 319 358 318 z"},"Z":{"x_min":0,"x_max":479,"ha":479,"o":"m 41 652 l 462 652 l 235 139 l 442 139 l 442 0 l 9 0 l 234 512 l 41 512 z"},"x":{"x_min":0,"x_max":469,"ha":469,"o":"m 10 449 l 172 449 q 227 333 232 305 l 234 305 q 242 343 295 449 l 458 449 l 314 223 l 459 0 l 300 0 q 252 101 234 150 l 232 150 q 230 133 204 76 l 168 0 l 11 0 l 153 221 z"},")":{"x_min":0,"x_max":250,"ha":250,"o":"m 20 647 l 93 686 q 202 498 202 248 q 202 -2 91 -185 l 18 -147 q 121 21 121 248 q 121 483 20 647 z"},"&":{"x_min":0,"x_max":546,"ha":546,"o":"m 380 0 l 355 35 q 285 -18 213 -18 q 136 -18 83 30 q 31 79 31 150 q 31 204 59 241 q 86 279 145 324 q 99 381 84 419 q 70 458 70 496 q 70 574 120 622 q 169 670 250 670 q 325 670 378 620 q 432 570 432 501 q 432 452 407 406 q 381 361 322 310 l 380 232 l 440 290 l 525 183 l 460 121 l 547 0 z m 246 414 q 299 459 299 496 q 299 513 285 525 q 272 536 251 536 q 232 536 219 522 q 205 508 205 489 q 205 460 246 414 z m 278 141 l 219 222 q 172 187 172 155 q 172 137 184 126 q 197 115 216 115 q 242 115 278 141 z"},"_":{"x_min":0,"x_max":500,"ha":500,"o":"m -7 -124 l -7 -74 l 507 -74 l 507 -124 z"},"v":{"x_min":0,"x_max":415,"ha":415,"o":"m 11 449 l 150 449 l 206 206 l 208 206 l 264 449 l 405 449 l 265 0 l 150 0 z"},"O":{"x_min":0,"x_max":560,"ha":560,"o":"m 282 -16 q 164 -16 102 74 q 40 165 40 336 q 40 494 102 582 q 165 670 276 670 q 395 670 457 582 q 520 493 520 329 q 520 165 458 74 q 396 -16 282 -16 z m 277 522 q 197 522 197 334 q 197 213 217 172 q 237 132 276 132 q 317 132 340 172 q 362 213 362 331 q 362 522 277 522 z"},"(":{"x_min":0,"x_max":250,"ha":250,"o":"m 167 685 l 241 647 q 137 485 137 249 q 137 142 164 35 q 191 -71 238 -148 l 166 -185 q 111 -101 84 18 q 56 136 56 245 q 56 504 167 685 z"},"C":{"x_min":0,"x_max":438,"ha":438,"o":"m 412 154 l 412 -1 q 365 -16 328 -16 q 200 -16 120 80 q 40 177 40 334 q 40 480 121 575 q 201 670 324 670 q 372 670 412 657 l 412 502 q 370 516 332 516 q 274 516 236 463 q 198 411 198 329 q 198 241 237 190 q 275 139 339 139 q 370 139 412 154 z"},"W":{"x_min":0,"x_max":758,"ha":758,"o":"m 10 652 l 152 652 l 236 259 l 238 259 l 314 652 l 443 652 l 520 263 l 522 263 l 602 652 l 748 652 l 592 0 l 458 0 l 396 292 q 386 339 379 384 l 377 384 q 365 308 359 283 l 298 0 l 166 0 z"},"A":{"x_min":0,"x_max":531,"ha":531,"o":"m 526 0 l 372 0 l 347 109 l 191 109 l 165 0 l 14 0 l 187 652 l 353 652 z m 319 226 q 286 372 269 503 l 267 503 q 250 368 218 226 z"},"f":{"x_min":0,"x_max":281,"ha":281,"o":"m 66 449 l 66 553 q 66 616 107 652 q 147 688 220 688 l 277 688 l 277 548 l 241 548 q 226 548 217 537 q 207 526 207 508 l 207 449 l 277 449 l 277 331 l 207 331 l 207 0 l 66 0 l 66 331 l 16 331 l 16 449 z"},"Q":{"x_min":0,"x_max":560,"ha":560,"o":"m 464 83 l 527 4 l 443 -58 l 389 10 q 343 -16 282 -16 q 164 -16 102 74 q 40 165 40 336 q 40 494 102 582 q 165 670 276 670 q 395 670 457 582 q 520 493 520 329 q 520 173 464 83 z m 292 134 l 234 208 l 317 270 l 355 221 q 362 255 362 331 q 362 522 277 522 q 197 522 197 334 q 197 213 217 172 q 237 132 276 132 q 282 132 292 134 z"},"w":{"x_min":0,"x_max":629,"ha":629,"o":"m 9 449 l 149 449 q 198 236 204 197 l 206 197 l 254 449 l 374 449 l 422 201 l 424 201 q 436 258 440 277 l 481 449 l 621 449 l 482 0 l 375 0 q 320 201 314 242 l 312 242 q 308 208 253 0 l 147 0 z"},"-":{"x_min":0,"x_max":313,"ha":313,"o":"m 49 285 l 274 285 l 274 163 l 49 163 z"},"E":{"x_min":0,"x_max":417,"ha":417,"o":"m 70 652 l 369 652 l 369 513 l 218 513 l 218 393 l 349 393 l 349 258 l 218 258 l 218 139 l 370 139 l 370 0 l 70 0 z"},"s":{"x_min":0,"x_max":383,"ha":383,"o":"m 71 145 q 144 102 176 102 q 193 102 205 111 q 217 120 217 133 q 217 146 207 153 q 197 159 134 187 q 83 209 61 240 q 38 271 38 316 q 38 381 83 423 q 127 465 197 465 q 264 465 362 411 l 307 310 q 244 349 203 349 q 168 349 168 321 q 168 307 181 297 q 194 287 228 275 q 292 252 321 221 q 350 190 350 142 q 350 74 304 30 q 258 -14 187 -14 q 110 -14 22 40 z"},">":{"x_min":0,"x_max":667,"ha":667,"o":"m 62 604 l 605 378 l 605 283 l 62 56 l 62 170 l 462 330 l 62 491 z"},"l":{"x_min":0,"x_max":258,"ha":258,"o":"m 58 688 l 200 688 l 200 0 l 58 0 z"},"8":{"x_min":0,"x_max":490,"ha":490,"o":"m 325 356 q 381 332 411 283 q 442 234 442 173 q 442 86 389 35 q 335 -17 246 -17 q 155 -17 102 34 q 49 85 49 173 q 49 195 52 214 q 55 233 61 250 q 67 267 76 282 q 85 297 98 310 q 110 322 127 333 q 144 344 162 355 l 162 356 l 161 356 q 161 357 160 357 q 160 358 159 358 q 130 372 111 388 q 91 405 78 435 q 64 466 64 506 q 64 576 116 622 q 167 669 245 669 q 324 669 375 622 q 425 574 425 500 q 425 451 401 417 q 376 383 325 356 z m 282 479 q 282 550 245 550 q 207 550 207 487 q 207 449 216 433 q 225 417 246 417 q 282 417 282 479 z m 298 185 q 298 281 245 281 q 190 281 190 193 q 190 99 246 99 q 298 99 298 185 z"},"\\":{"x_min":0,"x_max":469,"ha":469,"o":"m 114 688 l 442 -184 l 361 -184 l 32 688 z"},"e":{"x_min":0,"x_max":426,"ha":426,"o":"m 265 137 l 385 137 q 351 -14 214 -14 q 128 -14 79 51 q 29 116 29 230 q 29 336 79 401 q 128 465 211 465 q 261 465 307 434 q 353 403 374 352 q 395 300 397 190 l 160 190 q 163 90 216 90 q 234 90 248 103 q 262 116 265 137 z m 162 267 l 265 267 q 264 314 252 337 q 240 360 215 360 q 187 360 174 338 q 162 316 162 267 z"},"b":{"x_min":0,"x_max":474,"ha":474,"o":"m 54 688 l 196 688 l 196 395 l 198 395 q 224 431 247 447 q 270 464 305 464 q 365 464 405 402 q 445 339 445 223 q 445 116 406 50 q 368 -15 307 -15 q 244 -15 198 58 l 196 58 l 196 0 l 54 0 z m 304 227 q 304 339 247 339 q 196 339 196 231 q 196 169 209 140 q 223 112 252 112 q 304 112 304 227 z"},"%":{"x_min":0,"x_max":823,"ha":823,"o":"m 576 672 l 666 672 l 253 -35 l 164 -35 z m 297 498 q 297 413 262 365 q 227 318 163 318 q 101 318 65 365 q 29 411 29 493 q 29 577 64 624 q 99 670 162 670 q 226 670 261 625 q 297 579 297 498 z m 200 488 q 200 541 192 563 q 184 586 163 586 q 142 586 134 565 q 125 544 125 497 q 125 447 134 424 q 142 402 163 402 q 183 402 192 422 q 200 443 200 488 z m 530 146 q 530 227 566 272 q 602 318 666 318 q 730 318 766 271 q 802 224 802 140 q 802 59 766 13 q 729 -33 666 -33 q 600 -33 565 13 q 530 59 530 146 z m 703 138 q 703 189 694 211 q 686 234 666 234 q 646 234 637 215 q 629 196 629 153 q 629 97 636 74 q 644 51 666 51 q 687 51 695 71 q 703 91 703 138 z"},"m":{"x_min":0,"x_max":698,"ha":698,"o":"m 196 449 l 196 394 q 256 465 319 465 q 394 465 416 387 q 450 428 480 446 q 509 465 549 465 q 648 465 648 326 l 648 0 l 506 0 l 506 265 q 506 330 464 330 q 421 330 421 266 l 421 0 l 279 0 l 279 273 q 279 298 267 314 q 256 330 238 330 q 219 330 207 314 q 196 299 196 272 l 196 0 l 54 0 l 54 449 z"},"#":{"x_min":0,"x_max":668,"ha":668,"o":"m 38 497 l 189 497 l 230 684 l 322 684 l 281 497 l 454 497 l 494 684 l 587 684 l 547 497 l 629 497 l 629 404 l 529 404 l 498 256 l 629 256 l 629 164 l 481 164 l 440 -21 l 348 -21 l 388 164 l 213 164 l 175 -21 l 82 -21 l 121 164 l 38 164 l 38 256 l 140 256 l 171 404 l 38 404 z m 263 404 l 233 257 l 406 257 l 437 404 z"},",":{"x_min":0,"x_max":271,"ha":271,"o":"m 109 149 l 247 149 l 119 -131 l 22 -131 z"},"n":{"x_min":0,"x_max":472,"ha":472,"o":"m 196 449 l 196 388 l 198 388 q 248 464 320 464 q 367 464 394 433 q 422 401 422 348 l 422 0 l 280 0 l 280 277 q 280 300 269 314 q 258 329 241 329 q 196 329 196 272 l 196 0 l 54 0 l 54 449 z"},"h":{"x_min":0,"x_max":472,"ha":472,"o":"m 54 688 l 196 688 l 196 391 l 198 391 q 250 464 319 464 q 368 464 395 432 q 422 400 422 342 l 422 0 l 280 0 l 280 274 q 280 300 269 315 q 259 330 240 330 q 196 330 196 270 l 196 0 l 54 0 z"},"z":{"x_min":0,"x_max":396,"ha":396,"o":"m 43 449 l 371 449 l 229 117 l 362 117 l 362 0 l 25 0 l 166 332 l 43 332 z"},"B":{"x_min":0,"x_max":510,"ha":510,"o":"m 70 652 l 220 652 q 352 652 409 600 q 467 549 467 469 q 467 383 383 331 q 478 293 478 188 q 478 104 419 52 q 360 0 263 0 l 70 0 z m 218 527 l 218 386 q 317 389 317 455 q 317 495 293 510 q 270 526 218 527 z m 218 268 l 218 127 q 274 128 302 144 q 330 161 330 198 q 330 268 230 268 z"},"K":{"x_min":0,"x_max":519,"ha":519,"o":"m 70 652 l 218 652 l 218 345 l 220 345 l 360 652 l 515 652 l 364 319 l 509 0 l 346 0 l 220 271 l 218 271 l 218 0 l 70 0 z"},"R":{"x_min":0,"x_max":510,"ha":510,"o":"m 70 652 l 242 652 q 347 652 407 598 q 468 544 468 452 q 468 405 445 361 q 422 316 378 294 l 496 0 l 340 0 l 220 297 l 218 297 l 218 0 l 70 0 z m 218 526 l 218 371 q 316 373 316 440 q 316 485 293 505 q 271 524 218 526 z"},"T":{"x_min":0,"x_max":396,"ha":396,"o":"m 21 652 l 374 652 l 374 503 l 272 503 l 272 0 l 122 0 l 122 503 l 21 503 z"},"P":{"x_min":0,"x_max":509,"ha":509,"o":"m 70 652 l 253 652 q 350 652 408 597 q 467 542 467 451 q 467 356 407 302 q 348 248 243 248 l 218 248 l 218 0 l 70 0 z m 218 527 l 218 373 q 268 374 291 392 q 315 410 315 449 q 315 491 292 509 q 269 526 218 527 z"},"|":{"x_min":0,"x_max":588,"ha":588,"o":"m 241 696 l 347 696 l 347 -135 l 241 -135 z"},"t":{"x_min":0,"x_max":287,"ha":287,"o":"m 72 569 l 214 569 l 214 449 l 269 449 l 269 331 l 213 331 l 213 0 l 72 0 l 72 332 l 18 332 l 18 449 l 72 449 z"},"M":{"x_min":0,"x_max":745,"ha":745,"o":"m 117 652 l 304 652 q 344 441 367 289 l 383 390 q 393 449 404 505 l 433 652 l 624 652 l 698 0 l 552 0 l 512 448 l 421 0 l 321 0 l 225 449 l 187 0 l 47 0 z"},"g":{"x_min":0,"x_max":475,"ha":475,"o":"m 280 -2 l 280 62 q 238 1 181 1 q 109 1 69 61 q 29 122 29 232 q 29 340 68 401 q 107 463 175 463 q 235 463 277 402 l 279 402 l 279 449 l 421 449 l 421 33 q 421 -24 401 -75 q 380 -126 329 -156 q 278 -185 217 -185 q 156 -185 102 -152 q 48 -120 32 -43 l 159 -43 q 181 -77 214 -77 q 242 -77 261 -55 q 280 -34 280 -2 z m 280 234 q 280 343 225 343 q 198 343 183 316 q 167 290 167 243 q 167 120 224 120 q 280 120 280 234 z"},"j":{"x_min":0,"x_max":258,"ha":258,"o":"m 54 584 q 54 615 76 638 q 99 660 130 660 q 161 660 184 638 q 206 615 206 584 q 206 553 183 531 q 161 508 130 508 q 99 508 77 531 q 54 553 54 584 z m 58 449 l 200 449 l 200 -185 l 58 -185 z"},"i":{"x_min":0,"x_max":258,"ha":258,"o":"m 54 584 q 54 615 76 637 q 98 659 129 659 q 160 659 182 637 q 204 615 204 584 q 204 553 182 531 q 160 509 129 509 q 99 509 76 531 q 54 553 54 584 z m 58 449 l 200 449 l 200 0 l 58 0 z"},"y":{"x_min":0,"x_max":437,"ha":437,"o":"m 10 449 l 150 449 l 186 333 q 204 271 218 212 l 220 212 q 231 268 239 292 l 286 449 l 428 449 l 237 -185 l 95 -185 l 153 6 z"},"@":{"x_min":0,"x_max":844,"ha":844,"o":"m 631 421 l 604 228 q 591 132 590 125 q 589 117 589 114 q 589 105 595 105 q 637 105 679 159 q 720 214 720 301 q 720 424 644 505 q 567 585 451 585 q 319 585 223 478 q 127 370 127 219 q 127 64 214 -32 q 302 -128 435 -128 q 494 -128 556 -106 q 619 -84 665 -48 l 684 -31 l 774 -31 q 707 -109 618 -152 q 530 -194 439 -194 q 271 -194 166 -81 q 60 32 60 219 q 60 333 113 434 q 167 534 257 593 q 348 651 450 651 q 600 651 693 551 q 787 451 787 297 q 787 186 739 118 q 690 50 633 26 q 576 2 541 2 q 479 2 471 60 q 422 0 352 0 q 287 0 246 53 q 204 106 204 188 q 204 292 256 361 q 308 430 384 430 q 459 430 507 368 l 514 421 z m 322 199 q 322 158 342 130 q 361 102 392 102 q 431 102 459 137 q 488 173 488 228 q 488 269 464 298 q 441 327 407 327 q 370 327 346 291 q 322 254 322 199 z"},".":{"x_min":0,"x_max":271,"ha":271,"o":"m 58 66 q 58 99 82 123 q 105 147 139 147 q 173 147 197 123 q 221 100 221 67 q 221 34 197 10 q 172 -15 139 -15 q 105 -15 82 9 q 58 32 58 66 z"},"p":{"x_min":0,"x_max":476,"ha":476,"o":"m 196 449 l 196 392 l 198 392 q 246 462 305 462 q 369 462 408 397 q 447 332 447 221 q 447 115 407 49 q 367 -16 305 -16 q 240 -16 198 59 l 196 59 l 196 -185 l 54 -185 l 54 449 z m 305 226 q 305 337 249 337 q 196 337 196 225 q 196 110 249 110 q 305 110 305 226 z"},"X":{"x_min":0,"x_max":513,"ha":513,"o":"m 23 652 l 187 652 q 250 499 256 476 l 258 476 q 259 483 276 526 l 326 652 l 490 652 l 339 341 l 503 0 l 339 0 q 260 184 257 198 l 255 198 q 247 167 233 136 l 173 0 l 11 0 l 172 339 z"},"*":{"x_min":0,"x_max":365,"ha":365,"o":"m 180 516 l 153 516 q 141 516 129 514 q 105 511 95 511 q 71 511 56 523 q 40 535 40 553 q 40 569 52 582 q 63 595 79 595 q 98 595 118 581 q 138 566 154 549 q 169 531 184 524 q 175 547 167 565 q 145 613 145 626 q 145 645 157 657 q 169 670 187 670 q 205 670 217 658 q 228 646 228 628 q 228 617 226 610 q 224 604 211 575 q 194 539 192 526 q 210 537 231 558 q 251 577 264 584 q 276 592 294 592 q 310 592 323 581 q 335 569 335 551 q 335 511 276 511 q 260 511 242 514 q 211 518 195 518 l 195 516 q 273 471 283 457 q 292 444 292 428 q 292 412 280 400 q 268 389 251 389 q 228 389 217 409 q 205 428 196 478 q 196 483 187 513 q 182 500 177 474 q 165 414 152 402 q 139 390 122 390 q 104 390 92 402 q 80 413 80 431 q 80 463 141 493 q 152 499 180 514 z"},"Y":{"x_min":0,"x_max":511,"ha":511,"o":"m 8 652 l 174 652 q 229 511 254 435 l 256 435 q 281 513 335 652 l 505 652 l 330 295 l 330 0 l 180 0 l 180 295 z"},"c":{"x_min":0,"x_max":327,"ha":327,"o":"m 298 137 l 298 20 q 247 -14 196 -14 q 120 -14 74 52 q 29 117 29 228 q 29 333 76 399 q 123 465 197 465 q 249 465 299 428 l 299 312 q 270 327 247 327 q 213 327 192 300 q 171 272 171 226 q 171 178 191 150 q 212 122 247 122 q 269 122 298 137 z"},"!":{"x_min":0,"x_max":302,"ha":302,"o":"m 79 652 l 221 652 l 221 184 l 79 184 z m 70 64 q 70 97 94 121 q 118 144 151 144 q 184 144 208 120 q 232 97 232 64 q 232 30 208 7 q 184 -17 151 -17 q 117 -17 94 7 q 70 30 70 64 z"},"/":{"x_min":0,"x_max":469,"ha":469,"o":"m 437 688 l 108 -184 l 27 -184 l 355 688 z"},"[":{"x_min":0,"x_max":260,"ha":260,"o":"m 72 689 l 254 689 l 254 621 l 153 621 l 153 -117 l 254 -117 l 254 -185 l 72 -185 z"},"6":{"x_min":0,"x_max":490,"ha":490,"o":"m 196 653 l 351 653 q 268 480 238 407 q 244 408 259 411 q 275 414 287 414 q 366 414 411 361 q 455 308 455 212 q 455 107 397 45 q 340 -17 243 -17 q 152 -17 96 45 q 39 106 39 206 q 39 329 151 560 z m 247 111 q 277 111 296 137 q 315 163 315 205 q 315 246 295 273 q 276 301 248 301 q 219 301 200 273 q 181 246 181 203 q 181 162 199 136 q 217 111 246 111 z"},"r":{"x_min":0,"x_max":344,"ha":344,"o":"m 190 449 l 190 374 l 192 374 q 243 462 299 462 q 307 462 322 459 l 322 320 q 296 324 274 324 q 196 324 196 223 l 196 0 l 54 0 l 54 449 z"},"2":{"x_min":0,"x_max":490,"ha":490,"o":"m 204 410 l 61 410 q 61 483 67 525 q 73 566 93 598 q 112 630 152 650 q 191 669 246 669 q 336 669 385 622 q 433 574 433 485 q 433 439 415 386 q 396 333 359 270 l 279 133 l 410 133 l 410 0 l 38 0 l 251 364 q 290 429 290 483 q 290 510 278 527 q 267 544 249 544 q 221 544 213 522 q 204 500 204 434 z"},"{":{"x_min":0,"x_max":389,"ha":389,"o":"m 31 200 l 31 318 q 78 320 99 337 q 120 354 129 387 q 138 421 138 493 l 138 510 q 138 590 148 626 q 157 662 181 685 q 204 708 239 718 q 273 728 339 728 l 365 728 l 365 611 l 359 611 q 318 611 300 606 q 281 601 273 587 q 264 573 263 489 q 263 405 255 369 q 247 333 230 309 q 214 284 174 259 q 198 245 214 228 q 230 211 241 188 q 251 165 256 142 q 260 120 263 50 q 265 -20 265 -23 q 265 -52 273 -67 q 281 -82 298 -87 q 315 -93 358 -93 l 365 -93 l 365 -210 l 339 -210 q 253 -210 213 -189 q 174 -169 156 -133 q 138 -97 138 8 l 138 25 q 138 91 132 119 q 126 147 111 166 q 97 185 80 192 q 63 199 31 200 z"},"9":{"x_min":0,"x_max":490,"ha":490,"o":"m 217 150 l 259 248 q 225 238 200 238 q 128 238 84 294 q 40 351 40 443 q 40 545 97 607 q 155 670 248 670 q 343 670 400 609 q 457 549 457 447 q 457 409 444 352 q 431 295 411 244 q 392 193 300 0 l 145 0 z m 315 449 q 315 492 297 517 q 279 543 250 543 q 220 543 200 517 q 180 491 180 452 q 180 406 199 379 q 218 352 249 352 q 276 352 295 380 q 315 409 315 449 z"}," ":{"x_min":0,"x_max":245,"ha":245,"o":""},"I":{"x_min":0,"x_max":298,"ha":298,"o":"m 75 652 l 223 652 l 223 0 l 75 0 z"},"H":{"x_min":0,"x_max":567,"ha":567,"o":"m 70 652 l 218 652 l 218 410 l 349 410 l 349 652 l 497 652 l 497 0 l 349 0 l 349 271 l 218 271 l 218 0 l 70 0 z"},"4":{"x_min":0,"x_max":490,"ha":490,"o":"m 243 652 l 395 652 l 395 248 l 446 248 l 446 130 l 395 130 l 395 0 l 260 0 l 260 130 l 51 130 l 51 236 z m 258 455 l 163 248 l 260 248 l 260 455 z"},"~":{"x_min":0,"x_max":656,"ha":656,"o":"m 599 437 l 599 328 q 517 260 451 260 q 418 260 389 270 q 360 280 302 308 q 237 339 205 339 q 135 339 57 267 l 57 376 q 135 443 212 443 q 241 443 270 434 q 298 424 344 402 q 388 381 411 373 q 434 365 456 365 q 519 365 599 437 z"},"D":{"x_min":0,"x_max":531,"ha":531,"o":"m 70 652 l 208 652 q 352 652 426 570 q 501 488 501 331 q 501 212 464 139 q 427 65 361 33 q 295 0 215 0 l 70 0 z m 218 513 l 218 139 q 285 145 313 187 q 341 229 341 324 q 341 381 331 420 q 321 459 302 481 q 283 502 264 507 q 246 512 218 513 z"},"^":{"x_min":0,"x_max":584,"ha":584,"o":"m 18 321 l 245 728 l 339 728 l 566 321 l 453 321 l 292 608 l 132 321 z"},"0":{"x_min":0,"x_max":490,"ha":490,"o":"m 244 669 q 350 669 405 582 q 460 494 460 324 q 460 159 404 71 q 348 -17 244 -17 q 146 -17 87 65 q 29 147 29 331 q 29 492 85 581 q 141 669 242 669 z m 171 332 q 171 123 243 123 q 282 123 300 169 q 317 215 317 316 q 317 427 300 477 q 282 528 242 528 q 171 528 171 332 z"},"F":{"x_min":0,"x_max":396,"ha":396,"o":"m 70 652 l 369 652 l 369 512 l 218 512 l 218 393 l 351 393 l 351 258 l 218 258 l 218 0 l 70 0 z"},"`":{"x_min":0,"x_max":333,"ha":333,"o":"m 242 513 l 155 513 l 21 659 l 175 659 z"},"k":{"x_min":0,"x_max":479,"ha":479,"o":"m 54 688 l 196 688 l 196 289 l 198 289 l 295 449 l 465 449 l 321 248 l 468 0 l 304 0 l 198 219 l 196 219 l 196 0 l 54 0 z"},"u":{"x_min":0,"x_max":466,"ha":466,"o":"m 51 449 l 193 449 l 193 160 q 193 138 203 123 q 214 108 232 108 q 273 108 273 168 l 273 449 l 415 449 l 415 189 q 415 90 369 37 q 322 -15 235 -15 q 137 -15 94 39 q 51 92 51 173 z"},"]":{"x_min":0,"x_max":260,"ha":260,"o":"m 16 689 l 198 689 l 198 -185 l 16 -185 l 16 -118 l 117 -118 l 117 621 l 16 621 z"},"U":{"x_min":0,"x_max":560,"ha":560,"o":"m 66 652 l 218 652 l 218 193 q 218 161 235 142 q 252 123 281 123 q 311 123 328 143 q 345 163 345 198 l 345 652 l 496 652 l 496 224 q 496 137 473 84 q 450 31 406 7 q 361 -18 281 -18 q 163 -18 114 42 q 66 103 66 247 z"},"o":{"x_min":0,"x_max":451,"ha":451,"o":"m 223 465 q 320 465 371 400 q 422 335 422 220 q 422 107 369 46 q 316 -16 223 -16 q 134 -16 81 47 q 29 110 29 220 q 29 335 79 400 q 129 465 223 465 z m 224 111 q 252 111 266 137 q 280 163 280 225 q 280 287 266 312 q 252 337 225 337 q 198 337 184 313 q 170 289 170 224 q 170 111 224 111 z"},"N":{"x_min":0,"x_max":620,"ha":620,"o":"m 70 652 l 219 652 l 407 276 l 402 346 l 402 652 l 550 652 l 550 0 l 398 0 l 214 370 l 218 289 l 218 0 l 70 0 z"},"+":{"x_min":0,"x_max":667,"ha":667,"o":"m 61 383 l 281 383 l 281 602 l 385 602 l 385 383 l 606 383 l 606 278 l 385 278 l 385 59 l 281 59 l 281 278 l 61 278 z"},"G":{"x_min":0,"x_max":557,"ha":557,"o":"m 518 365 l 518 256 q 518 129 457 56 q 396 -16 289 -16 q 170 -16 105 73 q 40 163 40 329 q 40 497 105 583 q 169 670 294 670 q 434 670 496 521 l 355 463 q 337 494 322 509 q 307 523 281 523 q 236 523 217 476 q 198 429 198 323 q 198 225 219 179 q 241 133 287 133 q 361 133 364 239 l 295 239 l 295 365 z"},"q":{"x_min":0,"x_max":475,"ha":475,"o":"m 279 -185 l 279 53 q 250 18 227 1 q 203 -16 171 -16 q 108 -16 68 49 q 29 114 29 221 q 29 333 67 398 q 106 463 172 463 q 231 463 277 393 l 279 393 l 279 449 l 421 449 l 421 -185 z m 279 224 q 279 337 225 337 q 170 337 170 218 q 170 167 184 139 q 199 111 225 111 q 279 111 279 224 z"},"d":{"x_min":0,"x_max":473,"ha":473,"o":"m 278 688 l 419 688 l 419 0 l 277 0 l 277 59 l 275 59 q 228 -15 168 -15 q 105 -15 67 50 q 29 116 29 225 q 29 334 68 399 q 107 464 171 464 q 229 464 278 397 z m 278 228 q 278 339 224 339 q 169 339 169 221 q 169 169 184 140 q 199 112 225 112 q 250 112 264 142 q 278 172 278 228 z"},"1":{"x_min":0,"x_max":490,"ha":490,"o":"m 105 652 l 329 652 l 329 0 l 188 0 l 188 515 l 105 515 z"},"5":{"x_min":0,"x_max":490,"ha":490,"o":"m 136 653 l 413 653 l 410 522 l 242 522 l 228 423 q 322 420 371 365 q 421 309 421 213 q 421 107 363 45 q 305 -17 206 -17 q 151 -17 62 12 l 81 137 q 152 109 187 109 q 231 109 255 138 q 279 167 279 220 q 279 266 247 291 q 216 316 157 316 q 131 316 89 307 z"}}}
